<svg width="900" height="280" viewBox="0 0 900 280" xmlns="http://www.w3.org/2000/svg">
<defs>
  <radialGradient id="space" cx="40%" cy="50%" r="70%">
    <stop offset="0%" stop-color="#0A0E1A"/>
    <stop offset="100%" stop-color="#020408"/>
  </radialGradient>
  <radialGradient id="neb1" cx="25%" cy="35%" r="40%">
    <stop offset="0%" stop-color="#FF6B35" stop-opacity="0.05"/>
    <stop offset="100%" stop-color="#FF6B35" stop-opacity="0"/>
  </radialGradient>
  <radialGradient id="neb2" cx="75%" cy="65%" r="35%">
    <stop offset="0%" stop-color="#AB47BC" stop-opacity="0.06"/>
    <stop offset="100%" stop-color="#AB47BC" stop-opacity="0"/>
  </radialGradient>
  <filter id="glow">
    <feGaussianBlur in="SourceGraphic" stdDeviation="2.5" result="blur"/>
    <feMerge><feMergeNode in="blur"/><feMergeNode in="SourceGraphic"/></feMerge>
  </filter>
  <linearGradient id="border" x1="0%" y1="0%" x2="100%" y2="0%">
    <stop offset="0%"   stop-color="#FF6B35" stop-opacity="0.7"/>
    <stop offset="50%"  stop-color="#AB47BC" stop-opacity="0.7"/>
    <stop offset="100%" stop-color="#00F5FF" stop-opacity="0.7"/>
  </linearGradient>
</defs>

<rect width="900" height="280" rx="10" fill="url(#space)"/>
<rect width="900" height="280" rx="10" fill="url(#neb1)"/>
<rect width="900" height="280" rx="10" fill="url(#neb2)"/>
<rect x=".5" y=".5" width="899" height="279" rx="10" fill="none" stroke="url(#border)" stroke-width="1"/>

<circle cx="746" cy="257" r="0.3" fill="white" opacity="0.12000000000000001"/>
<circle cx="747" cy="258" r="0.4" fill="white" opacity="0.13"/>
<circle cx="748" cy="259" r="0.5" fill="white" opacity="0.14"/>
<circle cx="749" cy="260" r="0.6" fill="white" opacity="0.15000000000000002"/>
<circle cx="750" cy="261" r="0.7" fill="white" opacity="0.16"/>
<circle cx="751" cy="262" r="0.8" fill="white" opacity="0.16999999999999998"/>
<circle cx="752" cy="263" r="0.8999999999999999" fill="white" opacity="0.18"/>
<circle cx="753" cy="264" r="1" fill="white" opacity="0.19"/>
<circle cx="754" cy="265" r="0.3" fill="white" opacity="0.2"/>
<circle cx="755" cy="266" r="0.4" fill="white" opacity="0.21000000000000002"/>
<circle cx="705" cy="206" r="1" fill="white" opacity="0.21000000000000002"/>
<circle cx="706" cy="207" r="0.3" fill="white" opacity="0.22000000000000003"/>
<circle cx="707" cy="208" r="0.4" fill="white" opacity="0.22999999999999998"/>
<circle cx="708" cy="209" r="0.5" fill="white" opacity="0.24"/>
<circle cx="709" cy="210" r="0.6" fill="white" opacity="0.05"/>
<circle cx="710" cy="211" r="0.7" fill="white" opacity="0.060000000000000005"/>
<circle cx="711" cy="212" r="0.8" fill="white" opacity="0.07"/>
<circle cx="712" cy="213" r="0.8999999999999999" fill="white" opacity="0.08"/>
<circle cx="713" cy="214" r="1" fill="white" opacity="0.09"/>
<circle cx="714" cy="215" r="0.3" fill="white" opacity="0.1"/>
<circle cx="736" cy="237" r="0.8999999999999999" fill="white" opacity="0.12000000000000001"/>
<circle cx="737" cy="238" r="1" fill="white" opacity="0.13"/>
<circle cx="738" cy="239" r="0.3" fill="white" opacity="0.14"/>
<circle cx="739" cy="240" r="0.4" fill="white" opacity="0.15000000000000002"/>
<circle cx="740" cy="241" r="0.5" fill="white" opacity="0.16"/>
<circle cx="741" cy="242" r="0.6" fill="white" opacity="0.16999999999999998"/>
<circle cx="742" cy="243" r="0.7" fill="white" opacity="0.18"/>
<circle cx="743" cy="244" r="0.8" fill="white" opacity="0.19"/>
<circle cx="744" cy="245" r="0.8999999999999999" fill="white" opacity="0.2"/>
<circle cx="745" cy="246" r="1" fill="white" opacity="0.21000000000000002"/>
<circle cx="767" cy="268" r="0.8" fill="white" opacity="0.22999999999999998"/>
<circle cx="768" cy="269" r="0.8999999999999999" fill="white" opacity="0.24"/>
<circle cx="769" cy="270" r="1" fill="white" opacity="0.05"/>
<circle cx="770" cy="271" r="0.3" fill="white" opacity="0.060000000000000005"/>
<circle cx="771" cy="272" r="0.4" fill="white" opacity="0.07"/>
<circle cx="772" cy="273" r="0.5" fill="white" opacity="0.08"/>
<circle cx="773" cy="274" r="0.6" fill="white" opacity="0.09"/>
<circle cx="774" cy="275" r="0.7" fill="white" opacity="0.1"/>
<circle cx="775" cy="276" r="0.8" fill="white" opacity="0.11"/>
<circle cx="776" cy="277" r="0.8999999999999999" fill="white" opacity="0.12000000000000001"/>
<circle cx="798" cy="19" r="0.7" fill="white" opacity="0.14"/>
<circle cx="799" cy="20" r="0.8" fill="white" opacity="0.15000000000000002"/>
<circle cx="800" cy="21" r="0.8999999999999999" fill="white" opacity="0.16"/>
<circle cx="801" cy="22" r="1" fill="white" opacity="0.16999999999999998"/>
<circle cx="802" cy="23" r="0.3" fill="white" opacity="0.18"/>
<circle cx="803" cy="24" r="0.4" fill="white" opacity="0.19"/>
<circle cx="804" cy="25" r="0.5" fill="white" opacity="0.2"/>
<circle cx="805" cy="26" r="0.6" fill="white" opacity="0.21000000000000002"/>
<circle cx="806" cy="27" r="0.7" fill="white" opacity="0.22000000000000003"/>
<circle cx="807" cy="28" r="0.8" fill="white" opacity="0.22999999999999998"/>
<circle cx="829" cy="50" r="0.6" fill="white" opacity="0.05"/>
<circle cx="830" cy="51" r="0.7" fill="white" opacity="0.060000000000000005"/>
<circle cx="831" cy="52" r="0.8" fill="white" opacity="0.07"/>
<circle cx="832" cy="53" r="0.8999999999999999" fill="white" opacity="0.08"/>
<circle cx="833" cy="54" r="1" fill="white" opacity="0.09"/>
<circle cx="834" cy="55" r="0.3" fill="white" opacity="0.1"/>
<circle cx="835" cy="56" r="0.4" fill="white" opacity="0.11"/>
<circle cx="836" cy="57" r="0.5" fill="white" opacity="0.12000000000000001"/>
<circle cx="837" cy="58" r="0.6" fill="white" opacity="0.13"/>
<circle cx="838" cy="59" r="0.7" fill="white" opacity="0.14"/>
<circle cx="860" cy="81" r="0.5" fill="white" opacity="0.16"/>
<circle cx="861" cy="82" r="0.6" fill="white" opacity="0.16999999999999998"/>
<circle cx="862" cy="83" r="0.7" fill="white" opacity="0.18"/>
<circle cx="863" cy="84" r="0.8" fill="white" opacity="0.19"/>
<circle cx="864" cy="85" r="0.8999999999999999" fill="white" opacity="0.2"/>
<circle cx="865" cy="86" r="1" fill="white" opacity="0.21000000000000002"/>
<circle cx="866" cy="87" r="0.3" fill="white" opacity="0.22000000000000003"/>
<circle cx="867" cy="88" r="0.4" fill="white" opacity="0.22999999999999998"/>
<circle cx="868" cy="89" r="0.5" fill="white" opacity="0.24"/>
<circle cx="869" cy="90" r="0.6" fill="white" opacity="0.05"/>
<circle cx="891" cy="112" r="0.4" fill="white" opacity="0.07"/>
<circle cx="892" cy="113" r="0.5" fill="white" opacity="0.08"/>
<circle cx="893" cy="114" r="0.6" fill="white" opacity="0.09"/>
<circle cx="894" cy="115" r="0.7" fill="white" opacity="0.1"/>
<circle cx="895" cy="116" r="0.8" fill="white" opacity="0.11"/>
<circle cx="896" cy="117" r="0.8999999999999999" fill="white" opacity="0.12000000000000001"/>
<circle cx="897" cy="118" r="1" fill="white" opacity="0.13"/>
<circle cx="898" cy="119" r="0.3" fill="white" opacity="0.14"/>
<circle cx="899" cy="120" r="0.4" fill="white" opacity="0.15000000000000002"/>
<circle cx="0" cy="121" r="0.5" fill="white" opacity="0.16"/>
<circle cx="22" cy="143" r="0.3" fill="white" opacity="0.18"/>
<circle cx="23" cy="144" r="0.4" fill="white" opacity="0.19"/>
<circle cx="24" cy="145" r="0.5" fill="white" opacity="0.2"/>
<circle cx="25" cy="146" r="0.6" fill="white" opacity="0.21000000000000002"/>
<circle cx="26" cy="147" r="0.7" fill="white" opacity="0.22000000000000003"/>
<circle cx="27" cy="148" r="0.8" fill="white" opacity="0.22999999999999998"/>
<circle cx="28" cy="149" r="0.8999999999999999" fill="white" opacity="0.24"/>
<circle cx="29" cy="150" r="1" fill="white" opacity="0.05"/>
<circle cx="30" cy="151" r="0.3" fill="white" opacity="0.060000000000000005"/>
<circle cx="31" cy="152" r="0.4" fill="white" opacity="0.07"/>
<circle cx="53" cy="174" r="1" fill="white" opacity="0.09"/>
<circle cx="54" cy="175" r="0.3" fill="white" opacity="0.1"/>
<circle cx="55" cy="176" r="0.4" fill="white" opacity="0.11"/>
<circle cx="56" cy="177" r="0.5" fill="white" opacity="0.12000000000000001"/>
<circle cx="57" cy="178" r="0.6" fill="white" opacity="0.13"/>
<circle cx="58" cy="179" r="0.7" fill="white" opacity="0.14"/>
<circle cx="59" cy="180" r="0.8" fill="white" opacity="0.15000000000000002"/>
<circle cx="60" cy="181" r="0.8999999999999999" fill="white" opacity="0.16"/>
<circle cx="61" cy="182" r="1" fill="white" opacity="0.16999999999999998"/>
<circle cx="62" cy="183" r="0.3" fill="white" opacity="0.18"/>

<text x="20" y="26" font-family="monospace" font-size="11" font-weight="bold" fill="#FF6B35" letter-spacing="3">THE COSMOS</text>
<text x="130" y="26" font-family="monospace" font-size="10" fill="#484F58"> · CONTRIBUTION STAR MAP · LAST 90 DAYS</text>
<text x="880" y="26" font-family="monospace" font-size="10" fill="#484F58" text-anchor="end">0 ACTIVE · 0 COMMITS</text>
<line x1="0" y1="36" x2="900" y2="36" stroke="#21262D" stroke-width="1"/>

<g opacity="0.35">

</g>

<g filter="url(#glow)">

</g>


</svg>