<svg width="900" height="160" viewBox="0 0 900 160" xmlns="http://www.w3.org/2000/svg">
<defs>
  <linearGradient id="border" x1="0%" y1="0%" x2="100%" y2="0%">
    <stop offset="0%" stop-color="#00F5FF" stop-opacity="0.6"/>
    <stop offset="100%" stop-color="#AB47BC" stop-opacity="0.6"/>
  </linearGradient>
</defs>
<rect width="900" height="160" rx="10" fill="#0D1117"/>
<rect x=".5" y=".5" width="899" height="159" rx="10" fill="none" stroke="url(#border)" stroke-width="1"/>

<text x="20" y="26" font-family="monospace" font-size="11" font-weight="bold" fill="#00F5FF" letter-spacing="3">SIGNAL REACH</text>
<text x="155" y="26" font-family="monospace" font-size="10" fill="#484F58"> · PROFILE VIEW VELOCITY</text>
<text x="880" y="26" font-family="monospace" font-size="10" fill="#39D353" text-anchor="end">+7 since last scan</text>
<line x1="0" y1="36" x2="900" y2="36" stroke="#21262D" stroke-width="1"/>

<polyline points="20.0,130.0 49.7,126.3 79.3,122.6 109.0,122.6 138.6,122.6 168.3,120.1 197.9,117.7 227.6,109.0 257.2,106.6 286.9,104.1 316.6,100.4 346.2,100.4 375.9,100.4 405.5,96.7 435.2,81.9 464.8,81.9 494.5,77.0 524.1,77.0 553.8,73.3 583.4,73.3 613.1,69.6 642.8,67.1 672.4,64.7 702.1,64.7 731.7,56.0 761.4,49.9 791.0,48.6 820.7,48.6 850.3,48.6 880.0,40.0" fill="none" stroke="#00F5FF" stroke-width="2"/>

<text x="20" y="148" font-family="monospace" font-size="9" fill="#484F58">Total views: 622</text>
<text x="880" y="148" font-family="monospace" font-size="9" fill="#484F58" text-anchor="end">30 samples tracked</text>
</svg>