<svg width="900" height="160" viewBox="0 0 900 160" xmlns="http://www.w3.org/2000/svg">
<defs>
  <linearGradient id="border" x1="0%" y1="0%" x2="100%" y2="0%">
    <stop offset="0%" stop-color="#00F5FF" stop-opacity="0.6"/>
    <stop offset="100%" stop-color="#AB47BC" stop-opacity="0.6"/>
  </linearGradient>
</defs>
<rect width="900" height="160" rx="10" fill="#0D1117"/>
<rect x=".5" y=".5" width="899" height="159" rx="10" fill="none" stroke="url(#border)" stroke-width="1"/>

<text x="20" y="26" font-family="monospace" font-size="11" font-weight="bold" fill="#00F5FF" letter-spacing="3">SIGNAL REACH</text>
<text x="155" y="26" font-family="monospace" font-size="10" fill="#484F58"> · PROFILE VIEW VELOCITY</text>
<text x="880" y="26" font-family="monospace" font-size="10" fill="#39D353" text-anchor="end">+1 since last scan</text>
<line x1="0" y1="36" x2="900" y2="36" stroke="#21262D" stroke-width="1"/>

<polyline points="20.0,130.0 49.7,130.0 79.3,122.3 109.0,122.3 138.6,122.3 168.3,121.0 197.9,113.3 227.6,113.3 257.2,113.3 286.9,106.9 316.6,103.0 346.2,92.7 375.9,91.4 405.5,88.9 435.2,86.3 464.8,83.7 494.5,83.7 524.1,83.7 553.8,83.7 583.4,81.1 613.1,81.1 642.8,81.1 672.4,77.3 702.1,73.4 731.7,69.6 761.4,65.7 791.0,64.4 820.7,61.9 850.3,41.3 880.0,40.0" fill="none" stroke="#00F5FF" stroke-width="2"/>

<text x="20" y="148" font-family="monospace" font-size="9" fill="#484F58">Total views: 431</text>
<text x="880" y="148" font-family="monospace" font-size="9" fill="#484F58" text-anchor="end">30 samples tracked</text>
</svg>