<svg width="900" height="160" viewBox="0 0 900 160" xmlns="http://www.w3.org/2000/svg">
<defs>
  <linearGradient id="border" x1="0%" y1="0%" x2="100%" y2="0%">
    <stop offset="0%" stop-color="#00F5FF" stop-opacity="0.6"/>
    <stop offset="100%" stop-color="#AB47BC" stop-opacity="0.6"/>
  </linearGradient>
</defs>
<rect width="900" height="160" rx="10" fill="#0D1117"/>
<rect x=".5" y=".5" width="899" height="159" rx="10" fill="none" stroke="url(#border)" stroke-width="1"/>

<text x="20" y="26" font-family="monospace" font-size="11" font-weight="bold" fill="#00F5FF" letter-spacing="3">SIGNAL REACH</text>
<text x="155" y="26" font-family="monospace" font-size="10" fill="#484F58"> · PROFILE VIEW VELOCITY</text>
<text x="880" y="26" font-family="monospace" font-size="10" fill="#39D353" text-anchor="end">+3 since last scan</text>
<line x1="0" y1="36" x2="900" y2="36" stroke="#21262D" stroke-width="1"/>

<polyline points="20.0,130.0 49.7,130.0 79.3,128.2 109.0,126.5 138.6,124.7 168.3,122.9 197.9,122.4 227.6,121.2 257.2,111.8 286.9,111.2 316.6,110.0 346.2,108.2 375.9,108.2 405.5,108.2 435.2,107.1 464.8,107.1 494.5,105.9 524.1,105.3 553.8,105.3 583.4,100.6 613.1,99.4 642.8,95.9 672.4,93.5 702.1,92.4 731.7,70.6 761.4,55.9 791.0,55.3 820.7,48.2 850.3,41.8 880.0,40.0" fill="none" stroke="#00F5FF" stroke-width="2"/>

<text x="20" y="148" font-family="monospace" font-size="9" fill="#484F58">Total views: 552</text>
<text x="880" y="148" font-family="monospace" font-size="9" fill="#484F58" text-anchor="end">30 samples tracked</text>
</svg>