<svg width="900" height="160" viewBox="0 0 900 160" xmlns="http://www.w3.org/2000/svg">
<defs>
  <linearGradient id="border" x1="0%" y1="0%" x2="100%" y2="0%">
    <stop offset="0%" stop-color="#00F5FF" stop-opacity="0.6"/>
    <stop offset="100%" stop-color="#AB47BC" stop-opacity="0.6"/>
  </linearGradient>
</defs>
<rect width="900" height="160" rx="10" fill="#0D1117"/>
<rect x=".5" y=".5" width="899" height="159" rx="10" fill="none" stroke="url(#border)" stroke-width="1"/>

<text x="20" y="26" font-family="monospace" font-size="11" font-weight="bold" fill="#00F5FF" letter-spacing="3">SIGNAL REACH</text>
<text x="155" y="26" font-family="monospace" font-size="10" fill="#484F58"> · PROFILE VIEW VELOCITY</text>
<text x="880" y="26" font-family="monospace" font-size="10" fill="#39D353" text-anchor="end">+2 since last scan</text>
<line x1="0" y1="36" x2="900" y2="36" stroke="#21262D" stroke-width="1"/>

<polyline points="20.0,130.0 49.7,122.3 79.3,122.3 109.0,122.3 138.6,115.9 168.3,112.0 197.9,101.7 227.6,100.4 257.2,97.9 286.9,95.3 316.6,92.7 346.2,92.7 375.9,92.7 405.5,92.7 435.2,90.1 464.8,90.1 494.5,90.1 524.1,86.3 553.8,82.4 583.4,78.6 613.1,74.7 642.8,73.4 672.4,70.9 702.1,50.3 731.7,49.0 761.4,46.4 791.0,42.6 820.7,42.6 850.3,42.6 880.0,40.0" fill="none" stroke="#00F5FF" stroke-width="2"/>

<text x="20" y="148" font-family="monospace" font-size="9" fill="#484F58">Total views: 438</text>
<text x="880" y="148" font-family="monospace" font-size="9" fill="#484F58" text-anchor="end">30 samples tracked</text>
</svg>