<svg width="900" height="160" viewBox="0 0 900 160" xmlns="http://www.w3.org/2000/svg">
<defs>
  <linearGradient id="border" x1="0%" y1="0%" x2="100%" y2="0%">
    <stop offset="0%" stop-color="#00F5FF" stop-opacity="0.6"/>
    <stop offset="100%" stop-color="#AB47BC" stop-opacity="0.6"/>
  </linearGradient>
</defs>
<rect width="900" height="160" rx="10" fill="#0D1117"/>
<rect x=".5" y=".5" width="899" height="159" rx="10" fill="none" stroke="url(#border)" stroke-width="1"/>

<text x="20" y="26" font-family="monospace" font-size="11" font-weight="bold" fill="#00F5FF" letter-spacing="3">SIGNAL REACH</text>
<text x="155" y="26" font-family="monospace" font-size="10" fill="#484F58"> · PROFILE VIEW VELOCITY</text>
<text x="880" y="26" font-family="monospace" font-size="10" fill="#39D353" text-anchor="end">+3 since last scan</text>
<line x1="0" y1="36" x2="900" y2="36" stroke="#21262D" stroke-width="1"/>

<polyline points="20.0,130.0 54.4,105.1 88.8,85.0 123.2,79.3 157.6,79.3 192.0,73.5 226.4,73.5 260.8,73.5 295.2,72.6 329.6,66.8 364.0,66.8 398.4,66.8 432.8,62.0 467.2,59.1 501.6,51.5 536.0,50.5 570.4,48.6 604.8,46.7 639.2,44.8 673.6,44.8 708.0,44.8 742.4,44.8 776.8,42.9 811.2,42.9 845.6,42.9 880.0,40.0" fill="none" stroke="#00F5FF" stroke-width="2"/>

<text x="20" y="148" font-family="monospace" font-size="9" fill="#484F58">Total views: 402</text>
<text x="880" y="148" font-family="monospace" font-size="9" fill="#484F58" text-anchor="end">26 samples tracked</text>
</svg>