<svg width="900" height="160" viewBox="0 0 900 160" xmlns="http://www.w3.org/2000/svg">
<defs>
  <linearGradient id="border" x1="0%" y1="0%" x2="100%" y2="0%">
    <stop offset="0%" stop-color="#00F5FF" stop-opacity="0.6"/>
    <stop offset="100%" stop-color="#AB47BC" stop-opacity="0.6"/>
  </linearGradient>
</defs>
<rect width="900" height="160" rx="10" fill="#0D1117"/>
<rect x=".5" y=".5" width="899" height="159" rx="10" fill="none" stroke="url(#border)" stroke-width="1"/>

<text x="20" y="26" font-family="monospace" font-size="11" font-weight="bold" fill="#00F5FF" letter-spacing="3">SIGNAL REACH</text>
<text x="155" y="26" font-family="monospace" font-size="10" fill="#484F58"> · PROFILE VIEW VELOCITY</text>
<text x="880" y="26" font-family="monospace" font-size="10" fill="#39D353" text-anchor="end">+3 since last scan</text>
<line x1="0" y1="36" x2="900" y2="36" stroke="#21262D" stroke-width="1"/>

<polyline points="20.0,130.0 49.7,130.0 79.3,125.3 109.0,124.2 138.6,120.6 168.3,118.3 197.9,117.1 227.6,95.5 257.2,80.9 286.9,80.3 316.6,73.3 346.2,66.9 375.9,65.1 405.5,63.4 435.2,63.4 464.8,63.4 494.5,62.2 524.1,61.0 553.8,56.9 583.4,55.8 613.1,54.6 642.8,52.9 672.4,52.9 702.1,52.9 731.7,51.1 761.4,44.1 791.0,44.1 820.7,41.8 850.3,41.8 880.0,40.0" fill="none" stroke="#00F5FF" stroke-width="2"/>

<text x="20" y="148" font-family="monospace" font-size="9" fill="#484F58">Total views: 595</text>
<text x="880" y="148" font-family="monospace" font-size="9" fill="#484F58" text-anchor="end">30 samples tracked</text>
</svg>