<svg width="900" height="160" viewBox="0 0 900 160" xmlns="http://www.w3.org/2000/svg">
<defs>
  <linearGradient id="border" x1="0%" y1="0%" x2="100%" y2="0%">
    <stop offset="0%" stop-color="#00F5FF" stop-opacity="0.6"/>
    <stop offset="100%" stop-color="#AB47BC" stop-opacity="0.6"/>
  </linearGradient>
</defs>
<rect width="900" height="160" rx="10" fill="#0D1117"/>
<rect x=".5" y=".5" width="899" height="159" rx="10" fill="none" stroke="url(#border)" stroke-width="1"/>

<text x="20" y="26" font-family="monospace" font-size="11" font-weight="bold" fill="#00F5FF" letter-spacing="3">SIGNAL REACH</text>
<text x="155" y="26" font-family="monospace" font-size="10" fill="#484F58"> · PROFILE VIEW VELOCITY</text>
<text x="880" y="26" font-family="monospace" font-size="10" fill="#39D353" text-anchor="end">+0 since last scan</text>
<line x1="0" y1="36" x2="900" y2="36" stroke="#21262D" stroke-width="1"/>

<polyline points="20.0,130.0 55.8,104.3 91.7,83.5 127.5,77.6 163.3,77.6 199.2,71.6 235.0,71.6 270.8,71.6 306.7,70.7 342.5,64.7 378.3,64.7 414.2,64.7 450.0,59.8 485.8,56.8 521.7,48.9 557.5,47.9 593.3,45.9 629.2,44.0 665.0,42.0 700.8,42.0 736.7,42.0 772.5,42.0 808.3,40.0 844.2,40.0 880.0,40.0" fill="none" stroke="#00F5FF" stroke-width="2"/>

<text x="20" y="148" font-family="monospace" font-size="9" fill="#484F58">Total views: 399</text>
<text x="880" y="148" font-family="monospace" font-size="9" fill="#484F58" text-anchor="end">25 samples tracked</text>
</svg>